<?xml version="1.0" standalone="no"?>
<!DOCTYPE svg PUBLIC "-//W3C//DTD SVG 20010904//EN"
 "http://www.w3.org/TR/2001/REC-SVG-20010904/DTD/svg10.dtd">
<svg version="1.0" xmlns="http://www.w3.org/2000/svg"
 width="310.000000pt" height="310.000000pt" viewBox="0 0 310.000000 310.000000"
 preserveAspectRatio="xMidYMid meet">
<metadata>
Created by potrace 1.11, written by Peter Selinger 2001-2013
</metadata>
<g transform="translate(0.000000,310.000000) scale(0.100000,-0.100000)"
fill="#000000" stroke="none">
<path d="M158 3014 c-15 -8 -41 -31 -58 -52 l-30 -37 0 -1357 0 -1358 25 -38
c13 -20 41 -46 61 -57 37 -20 58 -20 1379 -20 1322 0 1342 0 1379 20 21 11 48
38 62 61 l24 41 0 1348 0 1348 -21 34 c-12 19 -39 45 -60 59 l-39 24 -1347 -1
c-1147 -1 -1352 -3 -1375 -15z m2210 -360 c119 -35 189 -104 223 -222 15 -54
19 -99 19 -237 0 -93 -4 -176 -8 -183 -7 -9 -55 -12 -208 -10 l-199 3 -6 154
c-7 197 -2 191 -172 191 -180 0 -167 25 -167 -327 l0 -283 27 -17 c23 -15 60
-19 263 -24 228 -6 237 -7 294 -33 74 -34 128 -92 155 -166 21 -57 22 -72 19
-462 l-3 -403 -28 -58 c-37 -74 -104 -128 -195 -157 -63 -20 -84 -21 -377 -18
-299 3 -312 4 -370 27 -80 32 -143 97 -173 178 -21 57 -22 75 -20 260 l3 198
200 0 200 0 5 -145 c3 -80 9 -153 14 -163 15 -31 42 -37 163 -37 89 1 123 4
138 16 19 14 20 27 20 320 0 291 -1 306 -19 320 -15 11 -58 14 -186 14 -283 0
-382 23 -462 107 -20 21 -47 63 -60 93 -23 55 -23 58 -23 440 0 355 1 389 19
435 37 96 98 150 210 187 75 24 621 26 704 2z"/>
</g>
</svg>
